<svg width="218" height="53" viewBox="0 0 218 53" fill="none" xmlns="http://www.w3.org/2000/svg">
<path d="M30.3438 35.5586C30.3438 35.0508 30.2656 34.5951 30.1094 34.1914C29.9661 33.7747 29.6927 33.3971 29.2891 33.0586C28.8854 32.707 28.319 32.362 27.5898 32.0234C26.8607 31.6849 25.9167 31.3333 24.7578 30.9688C23.4688 30.5521 22.2448 30.0833 21.0859 29.5625C19.9401 29.0417 18.9245 28.4362 18.0391 27.7461C17.1667 27.043 16.4766 26.2292 15.9688 25.3047C15.474 24.3802 15.2266 23.306 15.2266 22.082C15.2266 20.8971 15.487 19.8229 16.0078 18.8594C16.5286 17.8828 17.2578 17.0495 18.1953 16.3594C19.1328 15.6562 20.2396 15.1159 21.5156 14.7383C22.8047 14.3607 24.2174 14.1719 25.7539 14.1719C27.8503 14.1719 29.6797 14.5495 31.2422 15.3047C32.8047 16.0599 34.0156 17.0951 34.875 18.4102C35.7474 19.7253 36.1836 21.2292 36.1836 22.9219H30.3633C30.3633 22.0885 30.1875 21.3594 29.8359 20.7344C29.4974 20.0964 28.9766 19.5951 28.2734 19.2305C27.5833 18.8659 26.7109 18.6836 25.6562 18.6836C24.6406 18.6836 23.7943 18.8398 23.1172 19.1523C22.4401 19.4518 21.9323 19.862 21.5938 20.3828C21.2552 20.8906 21.0859 21.4635 21.0859 22.1016C21.0859 22.5833 21.2031 23.0195 21.4375 23.4102C21.6849 23.8008 22.0495 24.1654 22.5312 24.5039C23.013 24.8424 23.6055 25.1615 24.3086 25.4609C25.0117 25.7604 25.8255 26.0534 26.75 26.3398C28.2995 26.8086 29.6602 27.3359 30.832 27.9219C32.0169 28.5078 33.0065 29.1654 33.8008 29.8945C34.5951 30.6237 35.194 31.4505 35.5977 32.375C36.0013 33.2995 36.2031 34.3477 36.2031 35.5195C36.2031 36.7565 35.9622 37.8633 35.4805 38.8398C34.9987 39.8164 34.3021 40.6432 33.3906 41.3203C32.4792 41.9974 31.3919 42.5117 30.1289 42.8633C28.8659 43.2148 27.4531 43.3906 25.8906 43.3906C24.4844 43.3906 23.0977 43.2083 21.7305 42.8438C20.3633 42.4661 19.1198 41.8997 18 41.1445C16.8932 40.3893 16.0078 39.4258 15.3438 38.2539C14.6797 37.082 14.3477 35.6953 14.3477 34.0938H20.2266C20.2266 34.9792 20.3633 35.7279 20.6367 36.3398C20.9102 36.9518 21.2943 37.4466 21.7891 37.8242C22.2969 38.2018 22.8958 38.4753 23.5859 38.6445C24.2891 38.8138 25.0573 38.8984 25.8906 38.8984C26.9062 38.8984 27.7396 38.7552 28.3906 38.4688C29.0547 38.1823 29.543 37.7852 29.8555 37.2773C30.181 36.7695 30.3438 36.1966 30.3438 35.5586ZM45.3242 13V43H39.6992V13H45.3242ZM44.5234 31.6914H42.9805C42.9935 30.2201 43.1888 28.8659 43.5664 27.6289C43.944 26.3789 44.4844 25.2982 45.1875 24.3867C45.8906 23.4622 46.7305 22.7461 47.707 22.2383C48.6966 21.7305 49.7904 21.4766 50.9883 21.4766C52.0299 21.4766 52.974 21.6263 53.8203 21.9258C54.6797 22.2122 55.4154 22.681 56.0273 23.332C56.6523 23.9701 57.1341 24.8099 57.4727 25.8516C57.8112 26.8932 57.9805 28.1562 57.9805 29.6406V43H52.3164V29.6016C52.3164 28.6641 52.1797 27.9284 51.9062 27.3945C51.6458 26.8477 51.2617 26.4635 50.7539 26.2422C50.2591 26.0078 49.6471 25.8906 48.918 25.8906C48.1107 25.8906 47.4206 26.0404 46.8477 26.3398C46.2878 26.6393 45.8385 27.056 45.5 27.5898C45.1615 28.1107 44.9141 28.7227 44.7578 29.4258C44.6016 30.1289 44.5234 30.8841 44.5234 31.6914ZM61.3594 32.6484V32.2383C61.3594 30.6888 61.5807 29.263 62.0234 27.9609C62.4661 26.6458 63.1107 25.5065 63.957 24.543C64.8034 23.5794 65.8451 22.8307 67.082 22.2969C68.319 21.75 69.7383 21.4766 71.3398 21.4766C72.9414 21.4766 74.3672 21.75 75.6172 22.2969C76.8672 22.8307 77.9154 23.5794 78.7617 24.543C79.6211 25.5065 80.2721 26.6458 80.7148 27.9609C81.1576 29.263 81.3789 30.6888 81.3789 32.2383V32.6484C81.3789 34.1849 81.1576 35.6107 80.7148 36.9258C80.2721 38.2279 79.6211 39.3672 78.7617 40.3438C77.9154 41.3073 76.8737 42.056 75.6367 42.5898C74.3997 43.1237 72.9805 43.3906 71.3789 43.3906C69.7773 43.3906 68.3516 43.1237 67.1016 42.5898C65.8646 42.056 64.8164 41.3073 63.957 40.3438C63.1107 39.3672 62.4661 38.2279 62.0234 36.9258C61.5807 35.6107 61.3594 34.1849 61.3594 32.6484ZM66.9844 32.2383V32.6484C66.9844 33.5339 67.0625 34.3607 67.2188 35.1289C67.375 35.8971 67.6224 36.5742 67.9609 37.1602C68.3125 37.7331 68.7682 38.1823 69.3281 38.5078C69.888 38.8333 70.5716 38.9961 71.3789 38.9961C72.1602 38.9961 72.8307 38.8333 73.3906 38.5078C73.9505 38.1823 74.3997 37.7331 74.7383 37.1602C75.0768 36.5742 75.3242 35.8971 75.4805 35.1289C75.6497 34.3607 75.7344 33.5339 75.7344 32.6484V32.2383C75.7344 31.3789 75.6497 30.5716 75.4805 29.8164C75.3242 29.0482 75.0703 28.3711 74.7188 27.7852C74.3802 27.1862 73.931 26.7174 73.3711 26.3789C72.8112 26.0404 72.1341 25.8711 71.3398 25.8711C70.5456 25.8711 69.8685 26.0404 69.3086 26.3789C68.7617 26.7174 68.3125 27.1862 67.9609 27.7852C67.6224 28.3711 67.375 29.0482 67.2188 29.8164C67.0625 30.5716 66.9844 31.3789 66.9844 32.2383ZM90.8711 37.5312L95.2656 21.8672H98.8398L97.6875 28.0195L93.293 43H90.3047L90.8711 37.5312ZM88.6445 21.8672L91.7891 37.5117L92.082 43H88.5664L83.2148 21.8672H88.6445ZM102.863 37.2578L105.93 21.8672H111.379L106.027 43H102.531L102.863 37.2578ZM99.3281 21.8672L103.703 37.4141L104.309 43H101.301L96.9062 28.0391L95.793 21.8672H99.3281ZM125.305 28.5859V33H114.27V28.5859H125.305ZM146.828 33.5664H152.668C152.551 35.4805 152.023 37.1797 151.086 38.6641C150.161 40.1484 148.866 41.3073 147.199 42.1406C145.546 42.974 143.553 43.3906 141.223 43.3906C139.4 43.3906 137.766 43.0781 136.32 42.4531C134.875 41.8151 133.638 40.9036 132.609 39.7188C131.594 38.5339 130.819 37.1016 130.285 35.4219C129.751 33.7422 129.484 31.8607 129.484 29.7773V27.8047C129.484 25.7214 129.758 23.8398 130.305 22.1602C130.865 20.4674 131.659 19.0286 132.688 17.8438C133.729 16.6589 134.973 15.7474 136.418 15.1094C137.863 14.4714 139.478 14.1523 141.262 14.1523C143.632 14.1523 145.63 14.582 147.258 15.4414C148.898 16.3008 150.168 17.4857 151.066 18.9961C151.978 20.5065 152.525 22.2253 152.707 24.1523H146.848C146.783 23.0065 146.555 22.0365 146.164 21.2422C145.773 20.4349 145.181 19.8294 144.387 19.4258C143.605 19.0091 142.564 18.8008 141.262 18.8008C140.285 18.8008 139.432 18.9831 138.703 19.3477C137.974 19.7122 137.362 20.2656 136.867 21.0078C136.372 21.75 136.001 22.6875 135.754 23.8203C135.52 24.9401 135.402 26.2552 135.402 27.7656V29.7773C135.402 31.2487 135.513 32.5443 135.734 33.6641C135.956 34.7708 136.294 35.7083 136.75 36.4766C137.219 37.2318 137.818 37.8047 138.547 38.1953C139.289 38.5729 140.181 38.7617 141.223 38.7617C142.447 38.7617 143.456 38.5664 144.25 38.1758C145.044 37.7852 145.65 37.2057 146.066 36.4375C146.496 35.6693 146.75 34.7122 146.828 33.5664ZM167.57 38.2344V28.8203C167.57 28.1432 167.46 27.5638 167.238 27.082C167.017 26.5872 166.672 26.2031 166.203 25.9297C165.747 25.6562 165.155 25.5195 164.426 25.5195C163.801 25.5195 163.26 25.6302 162.805 25.8516C162.349 26.0599 161.997 26.3659 161.75 26.7695C161.503 27.1602 161.379 27.6224 161.379 28.1562H155.754C155.754 27.2578 155.962 26.4049 156.379 25.5977C156.796 24.7904 157.401 24.0807 158.195 23.4688C158.99 22.8438 159.934 22.3555 161.027 22.0039C162.134 21.6523 163.371 21.4766 164.738 21.4766C166.379 21.4766 167.837 21.75 169.113 22.2969C170.389 22.8438 171.392 23.6641 172.121 24.7578C172.863 25.8516 173.234 27.2188 173.234 28.8594V37.9023C173.234 39.0612 173.306 40.0117 173.449 40.7539C173.592 41.4831 173.801 42.1211 174.074 42.668V43H168.391C168.117 42.4271 167.909 41.7109 167.766 40.8516C167.635 39.9792 167.57 39.1068 167.57 38.2344ZM168.312 30.1289L168.352 33.3125H165.207C164.465 33.3125 163.82 33.3971 163.273 33.5664C162.727 33.7357 162.277 33.9766 161.926 34.2891C161.574 34.5885 161.314 34.9401 161.145 35.3438C160.988 35.7474 160.91 36.1901 160.91 36.6719C160.91 37.1536 161.021 37.5898 161.242 37.9805C161.464 38.3581 161.783 38.6576 162.199 38.8789C162.616 39.0872 163.104 39.1914 163.664 39.1914C164.51 39.1914 165.246 39.0221 165.871 38.6836C166.496 38.3451 166.978 37.9284 167.316 37.4336C167.668 36.9388 167.85 36.4701 167.863 36.0273L169.348 38.4102C169.139 38.944 168.853 39.4974 168.488 40.0703C168.137 40.6432 167.688 41.1836 167.141 41.6914C166.594 42.1862 165.936 42.5964 165.168 42.9219C164.4 43.2344 163.488 43.3906 162.434 43.3906C161.092 43.3906 159.875 43.1237 158.781 42.5898C157.701 42.043 156.841 41.2943 156.203 40.3438C155.578 39.3802 155.266 38.2865 155.266 37.0625C155.266 35.9557 155.474 34.9727 155.891 34.1133C156.307 33.2539 156.919 32.5312 157.727 31.9453C158.547 31.3464 159.569 30.8971 160.793 30.5977C162.017 30.2852 163.436 30.1289 165.051 30.1289H168.312ZM188.996 37.1602C188.996 36.7565 188.879 36.3919 188.645 36.0664C188.41 35.7409 187.974 35.4414 187.336 35.168C186.711 34.8815 185.806 34.6211 184.621 34.3867C183.553 34.1523 182.557 33.8594 181.633 33.5078C180.721 33.1432 179.927 32.707 179.25 32.1992C178.586 31.6914 178.065 31.0924 177.688 30.4023C177.31 29.6992 177.121 28.8984 177.121 28C177.121 27.1146 177.31 26.2812 177.688 25.5C178.078 24.7188 178.632 24.0286 179.348 23.4297C180.077 22.8177 180.962 22.3424 182.004 22.0039C183.059 21.6523 184.243 21.4766 185.559 21.4766C187.395 21.4766 188.97 21.7695 190.285 22.3555C191.613 22.9414 192.629 23.7487 193.332 24.7773C194.048 25.793 194.406 26.9518 194.406 28.2539H188.781C188.781 27.707 188.664 27.2188 188.43 26.7891C188.208 26.3464 187.857 26.0013 187.375 25.7539C186.906 25.4935 186.294 25.3633 185.539 25.3633C184.914 25.3633 184.374 25.474 183.918 25.6953C183.462 25.9036 183.111 26.1901 182.863 26.5547C182.629 26.9062 182.512 27.2969 182.512 27.7266C182.512 28.0521 182.577 28.3451 182.707 28.6055C182.85 28.8529 183.078 29.0807 183.391 29.2891C183.703 29.4974 184.107 29.6927 184.602 29.875C185.109 30.0443 185.734 30.2005 186.477 30.3438C188 30.6562 189.361 31.0664 190.559 31.5742C191.757 32.069 192.707 32.7461 193.41 33.6055C194.113 34.4518 194.465 35.5651 194.465 36.9453C194.465 37.8828 194.257 38.7422 193.84 39.5234C193.423 40.3047 192.824 40.9883 192.043 41.5742C191.262 42.1471 190.324 42.5964 189.23 42.9219C188.15 43.2344 186.932 43.3906 185.578 43.3906C183.612 43.3906 181.945 43.0391 180.578 42.3359C179.224 41.6328 178.195 40.7409 177.492 39.6602C176.802 38.5664 176.457 37.4466 176.457 36.3008H181.789C181.815 37.069 182.01 37.6875 182.375 38.1562C182.753 38.625 183.228 38.9635 183.801 39.1719C184.387 39.3802 185.018 39.4844 185.695 39.4844C186.424 39.4844 187.03 39.3867 187.512 39.1914C187.993 38.9831 188.358 38.7096 188.605 38.3711C188.866 38.0195 188.996 37.6159 188.996 37.1602ZM207.844 43.3906C206.203 43.3906 204.732 43.1302 203.43 42.6094C202.128 42.0755 201.021 41.3398 200.109 40.4023C199.211 39.4648 198.521 38.3776 198.039 37.1406C197.557 35.8906 197.316 34.5625 197.316 33.1562V32.375C197.316 30.7734 197.544 29.3086 198 27.9805C198.456 26.6523 199.107 25.5 199.953 24.5234C200.812 23.5469 201.854 22.7982 203.078 22.2773C204.302 21.7435 205.682 21.4766 207.219 21.4766C208.716 21.4766 210.044 21.724 211.203 22.2188C212.362 22.7135 213.332 23.4167 214.113 24.3281C214.908 25.2396 215.507 26.3333 215.91 27.6094C216.314 28.8724 216.516 30.2786 216.516 31.8281V34.1719H199.719V30.4219H210.988V29.9922C210.988 29.2109 210.845 28.5143 210.559 27.9023C210.285 27.2773 209.868 26.7826 209.309 26.418C208.749 26.0534 208.033 25.8711 207.16 25.8711C206.418 25.8711 205.78 26.0339 205.246 26.3594C204.712 26.6849 204.276 27.1406 203.938 27.7266C203.612 28.3125 203.365 29.0026 203.195 29.7969C203.039 30.5781 202.961 31.4375 202.961 32.375V33.1562C202.961 34.0026 203.078 34.7839 203.312 35.5C203.56 36.2161 203.905 36.8346 204.348 37.3555C204.803 37.8763 205.35 38.2799 205.988 38.5664C206.639 38.8529 207.375 38.9961 208.195 38.9961C209.211 38.9961 210.155 38.8008 211.027 38.4102C211.913 38.0065 212.674 37.401 213.312 36.5938L216.047 39.5625C215.604 40.2005 214.999 40.8125 214.23 41.3984C213.475 41.9844 212.564 42.4661 211.496 42.8438C210.428 43.2083 209.211 43.3906 207.844 43.3906Z" fill="#2D67BF"/>
<line y1="3" x2="30" y2="3" stroke="#2D67BF" stroke-width="6"/>
<line x1="3" y1="1.31134e-07" x2="3" y2="30" stroke="#2D67BF" stroke-width="6"/>
</svg>
